Coordinates
version=1
nRows=12
nColumns=24
inDegrees=yes

Units are S.I. units (second, meters, Newtons, ...)
Angles are in degrees.

endheader
time	pelvis_tilt	pelvis_list	pelvis_rotation	pelvis_tx	pelvis_ty	pelvis_tz	hip_flexion_r	hip_adduction_r	hip_rotation_r	knee_angle_r	ankle_angle_r	subtalar_angle_r	mtp_angle_r	hip_flexion_l	hip_adduction_l	hip_rotation_l	knee_angle_l	ankle_angle_l	subtalar_angle_l	mtp_angle_l	lumbar_extension	lumbar_bending	lumbar_rotation
      6.75000000	      4.24896722	      0.64586978	      4.17220728	      2.53760716	      0.91041651	     -0.28351041	      0.96236240	      4.87913145	     -4.31247672	    -10.86460917	     16.77860455	     -3.92588261	      0.00000000	     19.30087528	      1.13367423	     -3.40910799	    -62.62411716	      5.23160047	     -8.12305834	      0.00000000	    -22.88659172	      0.34089493	     -1.79103352
      6.76000000	      4.08272457	      0.70243013	      3.77647592	      2.54842051	      0.91055341	     -0.28295620	      0.05774518	      4.90783618	     -3.79750157	    -10.21553010	     16.98218528	     -4.07057861	      0.00000000	     20.39356477	      1.11847808	     -3.60793649	    -60.66478178	      5.89819986	     -7.96305927	      0.00000000	    -22.94782098	      0.12013098	     -1.66244887
      6.77000000	      3.90638283	      0.72158727	      3.42458212	      2.55921500	      0.91043674	     -0.28256436	     -0.78736924	      4.94546945	     -3.43319401	     -9.65306160	     17.29605337	     -4.03908886	      0.00000000	     21.37985810	      1.09272666	     -3.68188962	    -58.39376793	      6.31272235	     -7.89509433	      0.00000000	    -23.00553964	     -0.02741710	     -1.54769789
      6.78000000	      3.80114504	      0.67227574	      3.09746117	      2.57003443	      0.91016155	     -0.28225528	     -1.74024101	      5.07161779	     -2.78258602	     -9.03772570	     17.35338849	     -4.50788820	      0.00000000	     22.15589636	      1.00319931	     -3.63997270	    -55.81052925	      6.60823279	     -7.90255554	      0.00000000	    -23.14473807	     -0.07644992	     -1.45359530
      6.79000000	      3.71323418	      0.58931332	      2.76726259	      2.58088020	      0.90970809	     -0.28206816	     -2.63099068	      5.18777298	     -2.46731280	     -8.57240670	     17.66604954	     -4.45140385	      0.00000000	     22.75696639	      0.89347074	     -3.50776827	    -52.88560409	      6.66761656	     -8.09628455	      0.00000000	    -23.29849093	     -0.07042164	     -1.29838508
      6.80000000	      3.63592575	      0.45625396	      2.41099343	      2.59177234	      0.90906698	     -0.28193321	     -3.50599299	      5.34296175	     -2.09039393	     -8.16784192	     17.99312473	     -4.43395196	      0.00000000	     23.17685023	      0.73733087	     -3.28013852	    -49.61781169	      6.48330676	     -8.49546134	      0.00000000	    -23.44922452	     -0.01062212	     -1.03389976
      6.81000000	      3.55404772	      0.26956980	      2.06483750	      2.60274295	      0.90822183	     -0.28192882	     -4.41041369	      5.55206243	     -1.47303412	     -7.71715707	     18.10011098	     -4.79518501	      0.00000000	     23.42313679	      0.54788665	     -2.91445118	    -46.00281299	      6.02888701	     -9.25720117	      0.00000000	    -23.57021124	      0.14074140	     -0.74664873
      6.82000000	      3.54666113	      0.04830516	      1.67440280	      2.61379927	      0.90731829	     -0.28195441	     -5.33364858	      5.76482321	     -1.06708492	     -7.39610401	     18.40837582	     -4.73884829	      0.00000000	     23.38941122	      0.29905647	     -2.48202251	    -42.04378900	      5.36780192	    -10.03523501	      0.00000000	    -23.76402174	      0.32557171	     -0.34848242
      6.83000000	      3.52397713	     -0.24883441	      1.27134332	      2.62499471	      0.90619876	     -0.28204427	     -6.24663422	      6.04329422	     -0.61011138	     -7.08461953	     18.67938033	     -4.75658570	      0.00000000	     23.18567926	     -0.03113128	     -1.90801314	    -37.78757198	      4.43943621	    -11.00903259	      0.00000000	    -23.89655205	      0.59822737	      0.13299612
      6.84000000	      3.53461281	     -0.62800241	      0.82849247	      2.63631982	      0.90492646	     -0.28213914	     -7.17973274	      6.39035050	     -0.11734484	     -6.83046790	     18.96181952	     -4.80005121	      0.00000000	     22.77872884	     -0.48681685	     -1.25663755	    -33.30810246	      3.32913916	    -11.89466091	      0.00000000	    -24.04259479	      0.95800278	      0.75123245
      6.85000000	      3.57147387	     -1.10002454	      0.36820410	      2.64781008	      0.90349337	     -0.28227924	     -8.14068023	      6.81674543	      0.40712110	     -6.61720400	     19.21167557	     -4.82793046	      0.00000000	     22.20692128	     -1.07473278	     -0.52026683	    -28.69359976	      2.08881875	    -12.58829935	      0.00000000	    -24.18512103	      1.43192090	      1.44347604
      6.86000000	      3.62294715	     -1.69656291	     -0.06908894	      2.65945793	      0.90187585	     -0.28246568	     -9.12607892	      7.36483960	      0.94933514	     -6.43141099	     19.38683487	     -4.88737803	      0.00000000	     21.55067540	     -1.82809220	      0.28665323	    -24.08777905	      0.69611869	    -12.98834634	      0.00000000	    -24.31836420	      2.05810232	      2.14596748
